# xmcd
# 
# Track frame offsets:
#   150
#   11672
#   23350
#   38400
#   49880
#   61035
#   71477
#   81830
#   94327
#   105660
#   119787
#   131392
#   141997
#   156230
#   166027
# 
# Disc length: 2383 seconds
# 
# Revision: 3
# Processed by: cddbd v1.5.2PL0 Copyright (c) Steve Scherf et al.
# Submitted via: Synapstar 1.0 
# 
DISCID=bd094d0f
DTITLE=Various Artist - MM6218
DYEAR=1900
DGENRE=Country
TTITLE0=Cline, Patsy - Walkin' After Midnight
TTITLE1=Cline, Patsy - Shake, Rattle and Roll
TTITLE2=Cline, Patsy - When My Dreamboat Comes Home
TTITLE3=Cline, Patsy - Just Out Of Reach
TTITLE4=Cline, Patsy - Stranger In My Arms
TTITLE5=Cline, Patsy - Turn The Cards Slowly
TTITLE6=Cline, Patsy - I'm Blue Again
TTITLE7=Cline, Patsy - Just A Closer Walk With Thee
TTITLE8=Cline Patsy - I've Loved And Lost Again
TTITLE9=Cline, Patsy - Church, A Courtroom and Then Goodbye, A
TTITLE10=Cline, Patsy - Heart You Break May Be Your Own, The
TTITLE11=Cline, Patsy - I Cried All The Way To The Altar
TTITLE12=Cline, Patsy - Then You'll Know
TTITLE13=Cline, Patsy - Three Cigarettes In An Ashtray
TTITLE14=Cline, Patsy - Stupid Cupid
EXTD=
EXTT0=
EXTT1=
EXTT2=
EXTT3=
EXTT4=
EXTT5=
EXTT6=
EXTT7=
EXTT8=
EXTT9=
EXTT10=
EXTT11=
EXTT12=
EXTT13=
EXTT14=
PLAYORDER=
